HIERARCHY
ROOT Hips
{
     OFFSET 1.88212 96.90440 -13.34250
     CHANNELS 6 Xposition Yposition Zposition Zrotation Xrotation Yrotation
     JOINT Spine
     {
          OFFSET 0.00000 11.89050 0.00000
          CHANNELS 3 Zrotation Xrotation Yrotation
          JOINT Spine1
          {
               OFFSET -0.00000 25.65740 0.12766
               CHANNELS 3 Zrotation Xrotation Yrotation
               JOINT HEad
               {
                    OFFSET 0.00000 8.73416 0.01134
                    CHANNELS 3 Zrotation Xrotation Yrotation
                    End Site
                    {
                         OFFSET -0.29000 12.77420 2.51395
                    }
               }
               JOINT LeftShoulder1
               {
                    OFFSET 8.99000 -0.36225 -0.22000
                    CHANNELS 3 Zrotation Xrotation Yrotation
                    JOINT LeftArm
                    {
                         OFFSET 10.28270 -0.00338 0.32212
                         CHANNELS 3 Zrotation Xrotation Yrotation
                         JOINT LeftForeArm
                         {
                              OFFSET 32.76690 0.09914 -1.42434
                              CHANNELS 3 Zrotation Xrotation Yrotation
                              JOINT LeftHand
                              {
                                   OFFSET 27.56430 0.08536 1.02216
                                   CHANNELS 3 Zrotation Xrotation Yrotation
                                   End Site
                                   {
                                        OFFSET 16.74430 -0.60000 1.50291
                                   }
                              }
                         }
                    }
               }
               JOINT RightShoulder
               {
                    OFFSET -8.99000 -0.36225 -0.22000
                    CHANNELS 3 Zrotation Xrotation Yrotation
                    JOINT RightArm
                    {
                         OFFSET -10.28270 -0.00338 0.32212
                         CHANNELS 3 Zrotation Xrotation Yrotation
                         JOINT RightForeArm
                         {
                              OFFSET -32.89710 0.09914 -1.42434
                              CHANNELS 3 Zrotation Xrotation Yrotation
                              JOINT RightHand
                              {
                                   OFFSET -27.49210 0.08536 1.02216
                                   CHANNELS 3 Zrotation Xrotation Yrotation
                                   End Site
                                   {
                                        OFFSET -16.63120 -0.60000 1.50291
                                   }
                              }
                         }
                    }
               }
          }
     }
     JOINT LeftUpLeg
     {
          OFFSET 8.94580 -8.66707 0.10165
          CHANNELS 3 Zrotation Xrotation Yrotation
          JOINT LeftLeg
          {
               OFFSET 0.00000 -44.42270 1.37270
               CHANNELS 3 Zrotation Xrotation Yrotation
               JOINT LeftFoot
               {
                    OFFSET -0.25355 -42.09240 -1.46059
                    CHANNELS 3 Zrotation Xrotation Yrotation
                    JOINT LeftToes
                    {
                         OFFSET -0.04000 -4.41509 8.49910
                         CHANNELS 3 Zrotation Xrotation Yrotation
                         End Site
                         {
                              OFFSET 0.08000 -0.04745 9.77979
                         }
                    }
               }
          }
     }
     JOINT RightUpLeg
     {
          OFFSET -8.94580 -8.66707 0.10165
          CHANNELS 3 Zrotation Xrotation Yrotation
          JOINT RightLeg
          {
               OFFSET 0.00000 -44.42270 1.37270
               CHANNELS 3 Zrotation Xrotation Yrotation
               JOINT RightFoot
               {
                    OFFSET 0.25355 -42.09240 -1.46059
                    CHANNELS 3 Zrotation Xrotation Yrotation
                    JOINT RightToes
                    {
                         OFFSET 0.04000 -4.41509 8.49910
                         CHANNELS 3 Zrotation Xrotation Yrotation
                         End Site
                         {
                              OFFSET -0.08000 -0.13745 9.77979
                         }
                    }
               }
          }
     }
}
MOTION
Frames: 19
Frame Time: 0.01667
-17.79052 67.33192 -107.96586 12.23137 1.19811 8.72704 -19.69341 10.51173 9.21320 0.02559 0.03911 -0.03058 -15.15503 -1.95190 32.12083 -0.60272 13.04384 5.73094 -146.05092 -63.00473 -120.68523 -45.49081 57.45022 -91.48257 9.96414 11.64861 -2.52407 16.29612 16.77855 4.65712 66.45496 -19.19800 81.47480 13.99888 45.37298 114.39943 -4.58653 7.12846 -3.38862 37.80120 -29.98212 11.20002 -36.00320 49.19331 31.30644 -30.00813 0.00478 0.01201 -31.74091 -11.21916 -12.84892 -14.27858 -27.35250 -18.33324 -302.24530 82.89240 327.67816 5.21968 -0.26012 -0.06239 -25.98522 -35.99137 -17.09223 
-20.91084 70.49622 -104.94214 9.44786 1.17832 15.99973 -16.80640 9.50289 5.65770 0.02404 0.03395 -0.02839 -15.45905 2.11971 31.49162 1.58329 15.42946 2.70201 -145.77139 -61.27763 -120.37572 -44.28824 57.88913 -91.32037 5.98816 8.54732 -2.25863 19.86286 18.18133 1.10996 65.40909 -18.78160 79.86528 10.67756 47.75805 118.27392 -7.13500 5.21482 -3.24073 38.64048 -31.17002 12.50523 -34.64489 47.09039 22.45565 -30.00594 0.00288 0.02238 -21.26624 -10.12276 -6.72054 -9.27588 -22.02720 -22.42927 -356.76755 78.75710 379.43750 -6.36233 0.03743 -0.26474 -14.89835 -23.44315 -20.41374 
-24.07789 73.37103 -102.01784 6.10206 0.59893 23.40854 -13.09621 9.89085 2.16679 0.03218 0.12044 0.02770 -15.69635 4.56487 29.83230 3.44876 15.96937 -0.36580 -145.29022 -59.85926 -119.94682 -43.71447 58.05220 -91.08921 8.75395 10.79746 -1.86620 22.68996 17.66267 -2.11641 64.77020 -18.32876 78.31672 7.32976 49.83634 122.11060 -7.47618 6.14468 -3.56948 39.86637 -32.51435 14.23923 -30.96841 45.13472 10.73278 -30.00525 0.00044 0.02412 -19.20496 -8.78648 -6.66985 -4.86475 -18.23631 -26.33011 -377.90076 70.69533 395.09747 -5.17227 -0.06985 -0.08613 -22.05356 -25.34434 -20.76431 
-27.11273 75.84108 -99.38577 3.21554 -0.37109 29.71079 -9.33925 11.28766 -0.39229 0.03440 0.11784 0.00580 -15.97038 5.61301 27.61885 4.67325 15.07682 -3.23629 -145.04732 -58.82870 -119.87269 -43.53346 58.10000 -90.90047 6.37468 9.12527 -1.57429 24.58682 15.77788 -4.81581 64.47912 -17.51366 76.99802 3.83280 51.71756 125.97485 -8.83748 5.11420 -3.14190 40.00736 -33.80909 16.56380 -31.66437 44.49515 2.09766 -24.90709 0.14007 0.01155 0.54450 -0.73282 -1.82552 -0.85486 -15.48262 -28.38129 -383.08075 64.36713 393.89081 -5.01323 -0.00723 0.01700 -22.90916 -16.09590 -31.64838 
-30.45792 77.76421 -96.97446 0.80516 -1.57300 34.84941 -5.84757 12.29842 -2.43138 0.00896 0.00607 -0.03781 -16.05210 6.57159 25.73106 5.34074 14.37254 -5.52175 -144.99959 -58.04251 -120.28614 -43.53636 57.99213 -90.73410 8.16708 10.70640 -1.31356 26.04082 14.23411 -7.04165 64.54163 -16.18646 75.72060 7.33634 51.78931 123.34466 -4.60503 8.14653 -2.29526 38.50099 -35.10704 18.85801 -32.17277 45.94950 -4.71239 -17.58053 0.13321 -0.00529 10.13053 -1.93247 -0.29542 1.97017 -13.27249 -28.85089 -388.17709 57.01436 391.35934 -8.00085 -0.19091 -0.00286 -5.42365 -20.13016 -22.90273 
-33.89101 79.25344 -94.92438 -1.25238 -2.87592 38.94802 -2.69020 13.02434 -3.99978 0.00522 -0.00163 -0.03803 -15.94769 7.23791 24.02748 5.55420 13.63562 -7.39041 -145.07870 -57.44912 -121.05788 -43.54317 57.79235 -90.59359 6.83358 9.72029 -0.98627 26.92026 12.79465 -8.72024 65.05698 -14.53254 74.68287 7.10423 52.73545 123.53979 -4.09865 9.10627 -1.80121 36.14347 -36.41290 21.20747 -25.84531 47.55251 -15.01116 -13.41159 0.06140 -0.01143 5.57315 -0.38970 1.21111 3.34632 -10.97816 -28.02581 -393.74063 48.91131 388.98593 -3.25335 0.10928 -0.10017 1.57123 -15.04916 -22.19459 
-37.63094 79.97427 -93.19225 -2.94768 -4.16006 42.14799 -0.03102 13.61570 -5.13981 0.00128 -0.00230 -0.03466 -15.62520 7.69432 22.53858 5.20555 12.99283 -8.78009 -144.87724 -56.92562 -121.97913 -43.29209 57.49440 -90.56557 8.05486 10.83201 -0.79565 27.01909 11.65183 -9.77655 66.26953 -12.76255 74.22124 5.50399 53.83546 124.32693 -3.88448 9.93826 -1.74692 32.80882 -38.06049 23.14550 -18.67594 48.47790 -23.84517 5.39288 0.04310 -0.20121 8.42774 -3.37253 6.58225 4.54293 -8.56781 -25.82997 -394.34921 44.24178 382.09509 -1.27039 0.07617 -0.04539 9.68160 -14.29278 -18.23163 
-41.18620 80.24841 -91.88548 -4.28986 -5.32191 44.55939 2.08900 14.16723 -5.90017 -0.00174 -0.00210 -0.03141 -15.13935 7.95179 21.24673 4.70689 12.39481 -9.81498 -144.60669 -56.41282 -122.88355 -42.74026 57.09077 -90.61809 7.23456 10.14615 -0.58272 26.65599 10.73693 -10.40309 67.78290 -11.01148 74.40717 3.97682 54.67477 124.71836 -5.02310 9.94575 -1.28584 29.08059 -40.16281 24.57657 -7.79015 48.60735 -34.21273 22.38545 -0.03450 -0.09463 -14.53708 -2.96033 3.93490 4.81414 -6.00930 -22.61404 -395.17593 37.77528 376.02423 7.02882 0.15091 -0.40286 9.92156 -9.52211 -16.16354 
-44.71424 79.98444 -90.92154 -5.22173 -6.31848 46.30764 3.69507 14.76942 -6.37324 0.00837 -0.00608 -0.03152 -14.62696 8.07134 20.15951 4.15907 11.79693 -10.44178 -144.25970 -55.96902 -124.03516 -42.51215 55.43452 -89.91385 8.95236 10.22189 -0.24737 17.22703 12.23926 -1.46171 76.77094 -16.70155 77.04484 7.76125 53.42295 118.62511 -6.16274 10.85956 -2.93347 25.74235 -42.88830 25.46394 5.65908 47.26855 -45.44181 36.59499 0.00144 0.04421 -30.59576 -4.25058 4.76368 4.87569 -3.75843 -18.53553 -391.75436 35.25949 368.17892 11.40654 -0.04023 -0.16646 5.55176 -22.23924 -12.52122 
-47.83588 79.58237 -90.34869 -5.76735 -7.14953 47.48943 4.89382 15.49053 -6.60604 0.01187 -0.00214 -0.02329 -14.15681 8.05624 19.22501 3.54965 11.18719 -10.72703 -143.94444 -55.66703 -125.50981 -42.70177 52.62999 -88.50587 7.88998 9.11125 -0.18315 17.60109 11.33446 -2.32437 75.95789 -15.51741 79.27283 10.53809 52.20748 115.00074 -6.11835 10.75587 -2.30209 22.55379 -45.83820 25.38098 18.42916 44.85194 -55.01306 49.51787 0.07014 0.10355 -49.90955 -6.11158 3.49508 4.74063 -2.13016 -13.97636 -386.28983 34.28583 359.94373 15.69850 -0.07767 -0.09485 -2.23011 -29.31534 -9.82973 
-50.85668 79.10117 -89.92973 -5.19309 -7.91199 46.47819 4.78187 17.12095 -4.82427 0.01315 0.00078 -0.01917 -13.80740 7.95923 18.46924 2.89040 10.52192 -10.84593 -143.72185 -55.56371 -127.10655 -42.92643 49.35321 -86.73650 7.58105 8.78224 -0.06974 17.38879 10.48314 -2.66730 75.48895 -15.33060 80.69579 13.08775 50.88923 112.42562 -6.55536 11.10838 -3.24912 20.42286 -47.14419 26.24248 29.14291 41.86176 -61.88925 61.85346 0.13091 0.11108 -67.00606 -8.66566 3.07374 3.72554 -0.77696 -7.68193 -380.09750 35.71067 352.36288 12.58331 -0.01376 0.00528 -2.79419 -41.68905 -4.39911 
-53.63823 78.66909 -89.58691 -3.79309 -8.65890 43.67205 3.50314 19.40826 -1.34502 0.01164 0.00164 -0.01613 -13.59651 7.81553 17.89186 2.20998 9.83554 -10.84164 -143.55461 -55.56969 -128.57033 -42.96491 46.11621 -84.84754 5.93003 7.87797 -0.18483 16.96521 9.68413 -2.70337 75.07367 -15.67956 81.59857 15.39528 49.55251 110.44900 -6.20851 10.98223 -2.78000 19.21976 -46.70709 27.83481 37.30415 39.13345 -65.68214 74.38577 0.17697 0.09203 -84.24772 -11.12265 1.90144 1.79838 -0.09638 -0.32104 -373.18991 38.41772 345.58698 12.07201 -0.01669 -0.00422 -3.13304 -38.43759 -5.66993 
-56.37577 78.53078 -89.14210 -2.55480 -9.43662 41.12831 2.35233 21.12417 1.34367 0.01083 0.00403 -0.01061 -13.57117 7.94020 17.89768 1.54577 9.36517 -10.42822 -143.42876 -55.83257 -129.53264 -42.80599 43.33924 -83.07397 4.94436 7.53650 -0.35679 16.48878 9.22106 -2.30548 74.53004 -16.28411 81.97005 17.50514 48.15800 108.75971 -6.35837 11.05858 -3.30739 17.74416 -45.51001 27.73781 43.16490 36.66425 -66.76215 86.65285 0.18769 0.05209 -99.84009 -13.41259 1.11038 -0.26168 -0.70474 5.69332 -365.56934 41.68382 339.49985 9.61051 -0.03521 -0.03496 -3.87625 -59.33283 2.96424 
-58.92687 78.51196 -88.64287 -1.49700 -10.20209 38.80701 1.39521 22.31562 3.32462 0.00872 0.00763 -0.00489 -13.71762 8.31107 18.41150 0.84090 9.14961 -9.63804 -143.32124 -56.27799 -130.03879 -42.50615 41.12218 -81.48868 3.60242 7.03894 -0.82028 15.97470 9.11920 -1.53926 73.91875 -16.97825 81.98177 19.32219 46.82044 107.26590 -5.94946 10.90952 -2.87057 16.24714 -43.46877 26.33192 46.93259 34.57099 -65.56203 98.30470 0.15784 0.01310 -114.72034 -15.13507 0.27298 -2.33830 -2.04172 10.24216 -358.37512 43.52024 335.01706 14.16213 -0.14484 0.05390 -10.81297 -49.76833 -2.34754 
-61.36626 78.96215 -88.05220 -0.63670 -10.88687 36.65606 0.67769 23.00022 4.67383 0.00713 0.00969 0.00016 -14.05399 8.91360 19.37585 0.13832 9.02897 -8.53773 -143.35999 -57.07628 -130.07397 -42.16716 39.49011 -80.17188 2.80737 7.02505 -1.32727 15.53405 9.19776 -0.46473 73.07290 -17.67121 81.49223 20.90304 45.48718 105.87832 -6.09149 10.81163 -3.14847 14.66291 -40.41635 23.76985 49.64619 31.00838 -62.67383 90.54051 -0.05752 -0.01770 -111.14135 -15.83693 0.30254 -4.33689 -3.48941 13.27275 -352.09766 44.16178 331.91235 6.49702 -0.12539 0.00340 -5.78026 -53.38494 -1.46824 
-63.59205 79.53162 -87.45384 0.02449 -11.45254 34.64181 0.14282 23.54296 5.82015 0.00538 0.00941 0.00183 -14.47454 9.45928 20.31878 -0.56646 8.77951 -7.49004 -143.58389 -58.08756 -129.90863 -41.83936 38.35404 -79.08887 1.94045 6.90366 -2.14681 15.11909 9.15488 0.61686 72.17181 -18.29471 80.71674 22.19149 44.27862 104.63221 -5.64435 10.68512 -2.60616 13.27182 -36.53938 20.39596 50.06449 28.78617 -57.73446 83.37828 -0.01263 -0.04032 -107.16471 -15.62790 0.37636 -6.30660 -4.64792 14.86023 -347.03323 43.87415 331.07281 8.92551 -0.14655 0.02892 -10.82437 -49.41080 -4.04204 
-65.63161 80.48971 -86.81883 0.52826 -11.82451 32.73170 -0.26855 23.89923 6.79595 0.00505 0.00807 0.00253 -14.97647 9.95380 21.22651 -1.16200 8.36664 -6.55406 -144.27965 -59.36197 -129.80597 -41.57178 37.64828 -78.21319 1.42895 7.20008 -3.12266 14.85518 8.94745 1.67944 71.06792 -18.82490 79.60793 23.25345 43.14347 103.53058 -5.77308 10.57011 -2.51168 12.34252 -32.02300 16.53419 48.38794 27.31479 -51.05769 76.48803 0.04823 -0.02727 -102.98312 -14.09279 1.08391 -8.25469 -5.21828 15.12864 -343.47449 42.58362 331.63699 2.51642 -0.10280 0.02583 2.80627 -34.73412 -7.66337 
-67.39699 81.52245 -86.18723 0.91403 -11.95164 30.92578 -0.60012 24.03660 7.61334 0.00429 0.00776 0.00343 -15.54000 10.39150 22.08297 -1.74443 7.92939 -5.68839 -145.37334 -60.71539 -129.92598 -41.36502 37.30229 -77.46854 0.91203 7.16596 -4.21197 14.61458 8.71936 2.71173 69.95938 -19.24700 78.38858 24.07113 42.16822 102.59418 -5.35754 10.50823 -1.82494 12.19190 -27.27835 12.39343 43.04692 26.89746 -41.54523 71.46246 0.10594 -0.03560 -98.48240 -11.34556 1.54176 -10.27233 -5.11762 14.20076 -341.32422 40.42844 334.02472 3.77815 -0.12881 -0.00391 -5.82971 -38.86877 -7.16565 
-68.93346 82.73898 -85.53598 1.24474 -11.83790 29.22895 -0.86494 23.97717 8.27415 0.00538 0.00699 0.00383 -16.17043 10.76530 22.87568 -2.18577 7.46793 -4.90975 -147.04152 -62.07017 -130.43767 -41.25711 37.26816 -76.79028 0.56456 7.36557 -5.60273 14.50999 8.46644 3.69385 68.77453 -19.53885 77.14207 24.70015 41.30899 101.80821 -5.54983 10.45997 -1.33375 12.97919 -22.53359 8.04007 35.20650 26.17855 -30.04045 67.47224 0.12144 -0.03307 -94.41967 -8.04976 1.66312 -12.35264 -4.34665 12.16971 -340.33588 37.54763 337.34332 -0.24641 -0.12114 0.02734 8.34128 -20.47241 -12.52509 
